<svg xmlns="http://www.w3.org/2000/svg" width="21.027" height="21.029" viewBox="0 0 21.027 21.029">
    <path id="Icon_ionic-ios-female"
        d="M4.063,24.411a.672.672,0,0,0,.485-.2l2.265-2.265,1.871,1.871a.681.681,0,0,0,.485.2.672.672,0,0,0,.485-.2.687.687,0,0,0,0-.971L7.784,20.972l2.528-2.528a8.548,8.548,0,1,0-.971-.971L6.814,20,4.943,18.131a.681.681,0,0,0-.485-.2.672.672,0,0,0-.485.2.687.687,0,0,0,0,.971l1.871,1.871L3.578,23.238a.688.688,0,0,0,.485,1.173Zm6.72-17.555a7.171,7.171,0,1,1-2.1,5.071A7.137,7.137,0,0,1,10.783,6.856Z"
        transform="translate(-3.377 -3.382)" />
</svg>
