<svg xmlns="http://www.w3.org/2000/svg" viewBox="0 0 39.933 41.068">
    <g id="Layer_1-2" transform="translate(-0.004 -0.016)">
        <path id="Path_37"
            d="M3.225,11.67c.36.04.949.1,1.537.175a2.088,2.088,0,0,0,2.1-.777A2.051,2.051,0,0,0,7.03,8.8c-.254-.536-.493-1.079-.724-1.625a1.9,1.9,0,0,1,.586-2.452c.69-.546,1.405-1.065,2.137-1.554a1.856,1.856,0,0,1,2.392.153c.514.435,1,.907,1.5,1.351A2.036,2.036,0,0,0,16.344,3.6c.166-.669.279-1.35.443-2.019A1.887,1.887,0,0,1,18.674.036q1.3-.039,2.595,0a1.885,1.885,0,0,1,1.887,1.548c.168.685.284,1.382.457,2.065a2.028,2.028,0,0,0,3.333,1.085c.515-.433,1-.908,1.5-1.35a1.881,1.881,0,0,1,2.506-.19c.719.478,1.419.99,2.1,1.528a1.906,1.906,0,0,1,.586,2.453c-.244.575-.516,1.139-.763,1.713a2.061,2.061,0,0,0,2.162,2.971c.654-.062,1.3-.153,1.959-.2a1.851,1.851,0,0,1,2.026,1.281c.307.825.584,1.663.822,2.511a1.918,1.918,0,0,1-.965,2.33c-.534.322-1.085.618-1.622.938a2.049,2.049,0,0,0,0,3.667c.523.312,1.058.6,1.582.911a1.936,1.936,0,0,1,.992,2.4c-.238.831-.507,1.656-.808,2.465A1.856,1.856,0,0,1,37,29.444c-.606-.044-1.213-.11-1.815-.19a2.09,2.09,0,0,0-2.126.816,2.051,2.051,0,0,0-.143,2.228c.267.565.525,1.135.762,1.713a1.884,1.884,0,0,1-.584,2.334c-.688.548-1.4,1.071-2.133,1.559a1.884,1.884,0,0,1-2.507-.19c-.486-.42-.947-.867-1.43-1.288A2.035,2.035,0,0,0,23.6,37.5c-.166.669-.279,1.35-.443,2.019a1.89,1.89,0,0,1-1.887,1.55q-1.3.04-2.595,0a1.891,1.891,0,0,1-1.887-1.549c-.168-.685-.283-1.383-.456-2.067a2.03,2.03,0,0,0-3.37-1.056c-.5.429-.968.891-1.466,1.32a1.9,1.9,0,0,1-2.548.166q-1.037-.7-2.019-1.471a1.931,1.931,0,0,1-.6-2.529c.248-.574.52-1.137.762-1.713a2.052,2.052,0,0,0-2.13-2.928c-.654.055-1.3.152-1.959.2A1.877,1.877,0,0,1,.9,28.117C.6,27.307.333,26.484.1,25.651a1.9,1.9,0,0,1,.967-2.326c.536-.322,1.085-.619,1.621-.94a2.057,2.057,0,0,0,0-3.672c-.536-.321-1.087-.618-1.621-.94A1.906,1.906,0,0,1,.1,15.447c.232-.832.5-1.656.805-2.466a1.983,1.983,0,0,1,2.321-1.31ZM8.166,34.8l1.928,1.409c.532-.479,1.025-.934,1.53-1.377a4.092,4.092,0,0,1,6.716,2.151c.135.578.235,1.164.385,1.737a.476.476,0,0,0,.326.3,17.281,17.281,0,0,0,1.824,0,.524.524,0,0,0,.351-.325c.139-.493.22-1,.333-1.5a4.091,4.091,0,0,1,6.929-2.212l1.37,1.23,1.925-1.417c-.294-.658-.573-1.252-.828-1.857a4.089,4.089,0,0,1,4-5.75c.606.031,1.21.135,1.816.176.139.009.376-.068.414-.166.259-.683.478-1.381.71-2.073-.647-.375-1.232-.706-1.81-1.048a3.983,3.983,0,0,1-1.581-1.7,4.1,4.1,0,0,1,1.522-5.311c.608-.375,1.232-.723,1.86-1.09-.17-.537-.316-1.028-.48-1.513-.257-.762-.262-.76-1.039-.674-.3.033-.6.063-.907.1A4.149,4.149,0,0,1,31.1,7.827c.235-.488.441-.99.681-1.534L29.856,4.887c-.555.5-1.067.98-1.6,1.435a4.09,4.09,0,0,1-6.644-2.209c-.127-.546-.262-1.093-.344-1.647-.05-.335-.207-.421-.509-.412-.528.014-1.057.012-1.586,0-.281-.005-.434.071-.479.388-.068.491-.191.975-.3,1.459A4.093,4.093,0,0,1,11.46,6.115l-1.369-1.23c-.665.488-1.292.95-1.925,1.415.3.672.587,1.281.843,1.9a4.087,4.087,0,0,1-4.018,5.707c-.606-.031-1.21-.135-1.816-.175-.139-.009-.376.068-.414.166-.259.682-.478,1.381-.709,2.072.582.334,1.1.627,1.608.925a4.116,4.116,0,0,1,.017,7.294c-.524.3-1.051.6-1.62.93.2.611.411,1.2.573,1.794.109.407.311.486.718.446a10.4,10.4,0,0,1,2.672-.1A4.05,4.05,0,0,1,9.03,32.826c-.262.651-.56,1.287-.862,1.974Z"
            transform="translate(0 0)" />
        <path id="Path_38"
            d="M85.126,79.071a10.37,10.37,0,1,1-10.17,9.123c.1-.843.482-1.233,1.153-1.17.632.059,1.015.593.974,1.363-.015.3-.046.609-.042.913a7.958,7.958,0,0,0,4.736,7.588,8.213,8.213,0,1,0-2.394-13.213,2.579,2.579,0,0,1-.81.568,1,1,0,0,1-1.216-.417.931.931,0,0,1,.121-1.233,10.228,10.228,0,0,1,6.666-3.455c.366-.042.735-.051.985-.068Z"
            transform="translate(-65.261 -68.9)" />
    </g>
</svg>
