<svg xmlns="http://www.w3.org/2000/svg" viewBox="0 0 27.412 27.344">
  <path id="Path_11" d="M1916.566-427.554a2.928,2.928,0,0,0-.11-4.119,3.575,3.575,0,0,0-.286-.3q-3.36-3.347-6.711-6.7l-2.661-2.663c-.31-.312-.631-.635-.957-.947a2.857,2.857,0,0,0-2.995-.6,2.952,2.952,0,0,0-1.162.772c-2.823,2.806-5.683,5.668-8.449,8.436l-1.972,1.972c-.066.065-.14.14-.211.223a2.824,2.824,0,0,0-.574,2.847,2.78,2.78,0,0,0,2.21,1.93,3.506,3.506,0,0,0,.423.053v2.053q0,2.571,0,5.142a3.323,3.323,0,0,0,3.429,3.429q1.412,0,2.823,0h1.039a1.317,1.317,0,0,0,1.463-1.457q0-.818,0-1.637c.005-1.356.01-2.758-.014-4.14a.942.942,0,0,1,.254-.711.887.887,0,0,1,.669-.23c.683.026,1.405.026,2.146,0a.877.877,0,0,1,.66.229.94.94,0,0,1,.254.7c-.022,1.428-.018,2.878-.013,4.28q0,.786,0,1.572a1.3,1.3,0,0,0,1.4,1.394h1.959q1,0,2.008,0a3.635,3.635,0,0,0,.82-.088,3.3,3.3,0,0,0,2.57-3.272q.006-2.607,0-5.213v-2.044a2.865,2.865,0,0,0,1.829-.749v0l.017-.017c.007-.006.015-.011.021-.018A.906.906,0,0,0,1916.566-427.554Zm-4.53,8.02a.968.968,0,0,1-.263.726.882.882,0,0,1-.673.232c-.387-.015-.777-.02-1.164-.02-.3,0-.59,0-.879.005l-.667,0V-419.9c0-1.163,0-2.326,0-3.489a3.283,3.283,0,0,0-2.626-3.288,1.481,1.481,0,0,0-.33-.046c-.307,0-.615-.007-.923-.013-.731-.014-1.486-.028-2.235.022a3.206,3.206,0,0,0-2.957,3.152c-.018,1.207-.015,2.433-.012,3.618q0,.678,0,1.357-1.387,0-2.776,0a.771.771,0,0,1-.858-.864q0-2.761,0-5.522v-2.761a1.318,1.318,0,0,0-1.476-1.47h-.294c-.221,0-.442,0-.664,0a.311.311,0,0,1-.328-.216.3.3,0,0,1,.072-.376c.3-.306.605-.613.9-.91l9.561-9.56c.349-.348.454-.348.809.006l1.31,1.31q4.483,4.483,8.964,8.969a1.334,1.334,0,0,1,.262.331.307.307,0,0,1-.029.287.342.342,0,0,1-.277.158c-.226.009-.45.007-.69.005-.111,0-.221,0-.333,0a1.308,1.308,0,0,0-1.438,1.43q0,1.137,0,2.274C1912.018-423.544,1912.014-421.523,1912.036-419.534Z" transform="translate(-1890.159 443.217)" stroke-width="0.3"/>
</svg>
