<svg xmlns="http://www.w3.org/2000/svg" viewBox="0 0 32.856 27.187">
    <path id="Path_10" d="M2293.295-434.876c-.023-.123-.044-.246-.065-.369-.047-.271-.1-.552-.163-.83a8.465,8.465,0,0,0-8.246-6.493c-.215,0-.434.008-.65.024a8.08,8.08,0,0,0-2.028.417c-.312.062-1.814.535-5.352,4.111-2.452,2.456-4.991,5-7.763,7.766a8.268,8.268,0,0,0-2.145,3.573c-.124.427-.206.866-.285,1.289l-.02.105a7.364,7.364,0,0,0-2.893-.605,7.564,7.564,0,0,0-1.763.214,1.105,1.105,0,0,0-.871.884,7.485,7.485,0,0,0-.132,2.783,7.252,7.252,0,0,0,2.471,4.484,7.3,7.3,0,0,0,4.73,1.74,7.47,7.47,0,0,0,1.649-.186.8.8,0,0,1,.175-.018.923.923,0,0,1,.2.021,7.481,7.481,0,0,0,1.632.182,7.566,7.566,0,0,0,.927-.058l.188-.026a3.429,3.429,0,0,1,.464-.046,1.015,1.015,0,0,1,.156.011,10.107,10.107,0,0,0,1.536.121,8.111,8.111,0,0,0,5.859-2.441c2.607-2.565,5.23-5.2,7.768-7.747l2.173-2.181a8.276,8.276,0,0,0,2.23-4.029c.064-.277.112-.558.157-.829.021-.122.041-.245.063-.366l.006-.034v-1.432Zm-14.439,10.112a1.181,1.181,0,0,0-.983-.94,7.369,7.369,0,0,0-1.642-.187,7.271,7.271,0,0,0-6.282,3.6,7.625,7.625,0,0,0-1.4-1.734.333.333,0,0,1-.015-.1,5.977,5.977,0,0,1,1.632-4.386c1.075-1.127,2.208-2.232,3.3-3.3q.581-.566,1.156-1.13l7.413,7.412,1.674,1.674-1.393,1.392q-1.364,1.364-2.727,2.729a6.566,6.566,0,0,1-2.445,1.572A7.181,7.181,0,0,0,2278.855-424.763Zm-5.988,6.487q.566-.566,1.131-1.133a.989.989,0,0,0,.2-1.212.926.926,0,0,0-.833-.531,1.018,1.018,0,0,0-.251.032,1.415,1.415,0,0,0-.607.368c-.462.451-.925.915-1.372,1.364l-.141.141a5.237,5.237,0,0,1,4.224-4.521,5.5,5.5,0,0,1,.909-.06c.126,0,.253,0,.38,0s.26,0,.39,0h.1a5.177,5.177,0,0,1-1.2,4.159,5.241,5.241,0,0,1-3.387,1.838Zm-6.985-2.59a.947.947,0,0,0-.3.679,1.217,1.217,0,0,0,.41.866l1.5,1.495.005.006a5.274,5.274,0,0,1-.628-.12,5.294,5.294,0,0,1-3.964-5.884l.025,0a5.067,5.067,0,0,1,.764-.058,5.261,5.261,0,0,1,5.08,3.974,6.271,6.271,0,0,1,.115.65c-.513-.517-1.016-1.018-1.488-1.488a1.218,1.218,0,0,0-.848-.4A.943.943,0,0,0,2265.882-420.866Zm23.542-8.711c-1,1.029-2.033,2.057-3.035,3.05q-.583.578-1.164,1.157l-5.88-5.874-3.245-3.242.2-.2c.645-.642,1.313-1.307,1.964-1.967l.009-.009.009-.01c.024-.028,2.386-2.762,4.558-3.571a6.939,6.939,0,0,1,.691-.188c.109-.019.209-.039.3-.058a6.273,6.273,0,0,1,1.035-.087,6.4,6.4,0,0,1,2.208.4,6.4,6.4,0,0,1,4.056,4.589A6.516,6.516,0,0,1,2289.424-429.577Z" transform="translate(-2260.645 442.768)" stroke="#000" stroke-width="0.4"/>
</svg>
