<svg xmlns="http://www.w3.org/2000/svg" viewBox="0 0 21.631 30.798">
    <g id="Group_19" transform="translate(0.127 0.1)">
        <path id="Path_12" d="M591.924-487.719a9.461,9.461,0,0,1,1.355.6A3.941,3.941,0,0,1,594.6-481.9l-.129.24c.424.051.837.079,1.241.153a4.479,4.479,0,0,1,2.075,1.007q1.23,1.025,2.459,2.052a2.434,2.434,0,0,1,.4,3.49c-.373.493-.745.988-1.134,1.469a.464.464,0,0,0-.084.486q1.152,3.741,2.291,7.487c.031.1.058.206.1.342H596.3c0,.132,0,.237,0,.341,0,1.567.012,3.133,0,4.7a3.032,3.032,0,0,1-3.2,3.006,2.986,2.986,0,0,1-1.8-.713L591.1-458a3.094,3.094,0,0,1-2.23.874,3,3,0,0,1-2.938-2.833c-.049-1.605-.019-3.213-.024-4.819,0-.118,0-.236,0-.385h-5.473c.034-.141.056-.245.084-.347q1.053-3.864,2.111-7.726a.454.454,0,0,0-.086-.462c-.353-.433-.691-.878-1.024-1.327a2.406,2.406,0,0,1,.35-3.338q1.324-1.146,2.69-2.242a4.554,4.554,0,0,1,2.878-1.015h.3a1.926,1.926,0,0,0-.08-.2,3.975,3.975,0,0,1,2.432-5.832,1.387,1.387,0,0,0,.157-.067Zm4.378,15.433c.106-.123.154-.173.2-.228q1.349-1.756,2.7-3.513a.653.653,0,0,0-.127-1.056c-.794-.667-1.594-1.328-2.388-2a3.071,3.071,0,0,0-2.062-.743q-3.517.013-7.035,0a3.068,3.068,0,0,0-2.059.748c-.793.669-1.592,1.331-2.388,2a.656.656,0,0,0-.118,1.057q1.147,1.5,2.3,2.988.263.341.528.681l.063-.014v-4.981h1.8v3.623h6.811v-3.625H596.3Zm-4.3,3.234v8.118c0,.259-.01.519,0,.778a1.249,1.249,0,0,0,1.627,1.179,1.24,1.24,0,0,0,.87-1.227q0-5.732,0-11.465c0-.067-.009-.135-.014-.205h-6.778v.324q0,5.6,0,11.2a3.28,3.28,0,0,0,.012.329,1.234,1.234,0,0,0,1.534,1.068,1.241,1.241,0,0,0,.944-1.318q0-4.206,0-8.411v-.364Zm-3.071-14.76a2.186,2.186,0,0,0,2.181,2.193,2.2,2.2,0,0,0,2.179-2.171,2.2,2.2,0,0,0-2.157-2.191A2.181,2.181,0,0,0,588.928-483.812ZM584.073-471.7l-1.287,4.722H585.9c0-.774,0-1.529,0-2.284a.357.357,0,0,0-.094-.181C585.25-470.172,584.69-470.9,584.073-471.7Zm13.929.182c-.575.749-1.114,1.45-1.65,2.154a.243.243,0,0,0-.049.136c0,.745,0,1.49,0,2.239h3.083Z" transform="translate(-580.437 487.719)" stroke="#000" stroke-width="0.2"/>
    </g>
</svg>
