<svg xmlns="http://www.w3.org/2000/svg" viewBox="0 0 36.302 26.415">
    <path id="Path_9" d="M2094.862-422.372c-.014-.044-.029-.088-.044-.132a2.117,2.117,0,0,1-.072-.233h0a9.874,9.874,0,0,0-4.194-6.171c-.336-.228-.693-.423-1.039-.612l-.1-.054a6.289,6.289,0,0,0,1.837-4.2,6.3,6.3,0,0,0-1.738-4.6,6.044,6.044,0,0,0-8.168-.492,6.045,6.045,0,0,0-2.249,4.221,6.176,6.176,0,0,0,1.828,5.072,10,10,0,0,0-3.724,3.153l-1.691-.868a7.638,7.638,0,0,0,2.666-5.193,7.681,7.681,0,0,0-2-5.892,7.367,7.367,0,0,0-10.4-.49,7.35,7.35,0,0,0-2.516,5.266,7.531,7.531,0,0,0,2.7,6.307,12.093,12.093,0,0,0-6.463,6.458,14.683,14.683,0,0,0-.867,2.882,2.951,2.951,0,0,0,.613,2.465,2.972,2.972,0,0,0,2.3,1.111c3.064.008,6.111.012,9.121.012,3.128,0,6.217,0,9.242-.013a2.944,2.944,0,0,0,2.235-1.053,3.041,3.041,0,0,0,.689-2.456c-.062-.383-.147-.752-.236-1.142l-.034-.149h2.957q3.273,0,6.544,0a2.655,2.655,0,0,0,2.727-2.045l.008-.013c.011-.017.023-.035.032-.053l.041-.072v-.967Zm-7.372-9.15a3.257,3.257,0,0,1-2.345.973,3.447,3.447,0,0,1-3.367-3.5,3.5,3.5,0,0,1,1-2.454,3.313,3.313,0,0,1,2.379-1.007h.013a3.433,3.433,0,0,1,3.362,3.489A3.505,3.505,0,0,1,2087.49-431.522Zm4.652,9.622a1.291,1.291,0,0,1-.129.005q-5.243,0-10.486,0a.346.346,0,0,1-.081-.012,12.993,12.993,0,0,0-2.127-2.8,6.863,6.863,0,0,1,5.362-3.094,7.082,7.082,0,0,1,7.441,5.786A1.116,1.116,0,0,1,2092.142-421.9Zm-24.745-7.77a4.926,4.926,0,0,1-1.436-3.521,4.835,4.835,0,0,1,4.769-4.869h.012a4.838,4.838,0,0,1,4.75,4.9,4.832,4.832,0,0,1-4.762,4.884h0A4.677,4.677,0,0,1,2067.4-429.67Zm11.967,12.586-.211,0h-8.428l-2.4,0c-2.091,0-4.254-.008-6.382.015a.754.754,0,0,1-.553-.156.739.739,0,0,1-.051-.564,9.775,9.775,0,0,1,7.245-7.513,9.888,9.888,0,0,1,2.1-.227,9.589,9.589,0,0,1,9.349,7.452l.013.055c.043.184.085.357.11.531a.358.358,0,0,1-.069.281.356.356,0,0,1-.26.126C2079.678-417.08,2079.525-417.082,2079.364-417.084Z" transform="translate(-2058.574 440.779)"/>
</svg>
