<svg xmlns="http://www.w3.org/2000/svg" viewBox="0 0 71.016 76.992">
    <path id="Icon_ionic-ios-thumbs-up"
        d="M72.44,66.423a7.512,7.512,0,0,0,3.09-5.81,8.123,8.123,0,0,0-2.017-5.384c-.111-.222-.2-.426-.3-.629l-.037-.2a2.416,2.416,0,0,1,.37-1.85c.629-.925,1.073-2.276,1.073-4.755A5.622,5.622,0,0,0,72.828,43.5a3.528,3.528,0,0,1-.759-3.386,7.136,7.136,0,0,0-1.517-6.994c-1.943-2.183-3.756-2.442-8.586-2.165-3.331.2-10.269,1.277-14.84,2-1.869.3-3.5.555-4,.592-2.35.241-2.812,0-3.035-.907A6,6,0,0,1,41,30.23a39.681,39.681,0,0,0,2.683-6.624c1.869-6.143,1.665-12.8-.5-16.69-1.018-1.832-2.738-3.534-4.866-3.534s-4.311.444-5.162,1.462c-.629.74-.426,2.146-1.147,4.959a53.95,53.95,0,0,1-2.22,7.771C28.4,20.646,22.444,25.919,19.243,28.75c-.759.666-1.406,1.24-1.869,1.684a38.139,38.139,0,0,0-4.718,6.051,32.208,32.208,0,0,1-2.535,3.423,6.684,6.684,0,0,1-4.126,2.017,1.485,1.485,0,0,0-1.48,1.48V72.917A1.532,1.532,0,0,0,6.05,74.453a29.159,29.159,0,0,1,12.286,2.183,31.976,31.976,0,0,0,8.586,2.239,177.728,177.728,0,0,0,20.835,1.5,92.213,92.213,0,0,0,10.473-.722c5.736-.666,11.879-2,13.914-6.846a5.226,5.226,0,0,0-.093-4.385,1.455,1.455,0,0,1-.148-.481A1.568,1.568,0,0,1,72.44,66.423Z"
        transform="translate(-4.514 -3.382)" />
</svg>
