<svg id="Group_17" data-name="Group 17" xmlns="http://www.w3.org/2000/svg" viewBox="0 0 40.655 26.586">
    <path id="Path_8" d="M2538.175-422.069a3.949,3.949,0,0,1-.863,1.839,3.387,3.387,0,0,1-2.573,1.12c-.526,0-1.052,0-1.638,0a7.212,7.212,0,0,1-.273.7,3.127,3.127,0,0,1-2.125,1.761,4.548,4.548,0,0,1-3.069-.186,3.291,3.291,0,0,1-1.954-3.225q0-2.441,0-4.881v-.444h-15.657c0,.156,0,.309,0,.461-.01,1.574.017,3.149-.04,4.721a3.277,3.277,0,0,1-2.9,2.987,4.874,4.874,0,0,1-2.57-.263,3.25,3.25,0,0,1-1.835-2.116c-.026-.087-.06-.171-.06-.173-.591,0-1.129.008-1.666,0a3.337,3.337,0,0,1-3.413-3.384q-.036-6.945,0-13.891a3.3,3.3,0,0,1,3.25-3.372c.589-.033,1.182-.005,1.819-.005.062-.165.136-.417.246-.653a3.08,3.08,0,0,1,2.207-1.83,4.232,4.232,0,0,1,3.7.622,3.379,3.379,0,0,1,1.266,2.821c-.007,1.8,0,3.6,0,5.4v.45h15.636c.007-.148.019-.3.02-.452.011-1.759-.017-3.52.042-5.277a3.273,3.273,0,0,1,2.9-2.984,5.072,5.072,0,0,1,2.388.188,3.243,3.243,0,0,1,2.014,2.2c.025.086.06.17.06.168.568,0,1.079,0,1.59,0a3.35,3.35,0,0,1,3.442,2.836.382.382,0,0,0,.056.1Zm-30.646-8.018V-432.7q0-3.371,0-6.743c0-.373-.046-.746-.407-.927a1.909,1.909,0,0,0-1.646-.024c-.464.2-.451.667-.451,1.1q0,9.2,0,18.4a3.331,3.331,0,0,0,.036.512.779.779,0,0,0,.712.688,3.854,3.854,0,0,0,.594.018c.878,0,1.158-.282,1.159-1.166Q2507.529-425.466,2507.529-430.087Zm20.646.621v.317q0,4.522,0,9.043c0,.371.038.745.4.933a1.907,1.907,0,0,0,1.646.038c.468-.192.463-.658.463-1.09q0-9.222,0-18.443a2.862,2.862,0,0,0-.034-.473.8.8,0,0,0-.74-.707,3.32,3.32,0,0,0-.4-.012c-1.112,0-1.332.214-1.332,1.311Zm-18.147-1.62c0,1.025-.005,2.013.012,3,0,.062.178.17.277.173.5.018,1,.009,1.507.009q6.7,0,13.4.008c.368,0,.473-.1.461-.466-.027-.766-.007-1.533-.009-2.3,0-.138-.015-.277-.024-.424Zm-7.5.989q0-3.372,0-6.744a.934.934,0,0,0-.366-.91,1.883,1.883,0,0,0-1.645-.073c-.492.18-.491.663-.49,1.112q0,6.605,0,13.211c0,.079,0,.159,0,.238a.891.891,0,0,0,.975.992c.119.005.238,0,.357,0,.883,0,1.164-.284,1.165-1.164Q2502.529-426.765,2502.529-430.1Zm30.646.666q0,3.372,0,6.745a.921.921,0,0,0,.375.9,1.891,1.891,0,0,0,1.646.062c.49-.187.481-.671.481-1.119q0-6.606,0-13.211a3.4,3.4,0,0,0-.015-.4.823.823,0,0,0-.815-.81,4.939,4.939,0,0,0-.554-.014c-.822.007-1.114.3-1.114,1.135Q2533.173-432.784,2533.174-429.431Z" transform="translate(-2497.519 443.059)"/>
</svg>
